<svg xmlns="http://www.w3.org/2000/svg" viewBox="0 0 45 45"><defs><style>.cls-1{fill:#017fff;}.cls-2,.cls-5{fill:none;stroke:#017fff;stroke-linejoin:round;}.cls-3{fill:#cce6ff;}.cls-4{fill:#8f8f8f;}.cls-5{stroke-width:0.5px;}</style></defs><title>画板 4 副本 3</title><g id="图层_2" data-name="图层 2"><path class="cls-1" d="M24,20V32H2V20H24m1-1H1V33H25V19Z"/><path class="cls-2" d="M43,26.5H39.5s-.9,0-1,1.2a1.4,1.4,0,0,0,1.1,1.6,1.5,1.5,0,0,0-1.1,1.3c-.1,1.8,1.1,1.6,1.1,1.6s-1.3.2-1.1,2a1.5,1.5,0,0,0,1.1,1.2,1.4,1.4,0,0,0-1.1,1.7c.2,1.2,1.1,1.2,1.1,1.2H43"/><circle class="cls-3" cx="12" cy="19" r="4.5"/><path class="cls-1" d="M12,15a4,4,0,1,1-4,4,4,4,0,0,1,4-4m0-1a5,5,0,1,0,5,5,5,5,0,0,0-5-5Z"/><polyline class="cls-2" points="7.5 6 7.5 12.5 8.8 12.5 9.5 10.8 10.2 12.5 11.5 12.5 12.2 10.8 13.2 12.5 14.5 12.5 15.2 10.8 16.2 12.5 17.5 12.5 17.5 6"/><line class="cls-2" x1="17" y1="9.5" x2="19" y2="9.5"/><line class="cls-2" x1="19.5" y1="8" x2="19.5" y2="11"/><polygon class="cls-4" points="14.7 16.3 13.7 17.1 15.1 17.8 14.7 16.3"/><polygon class="cls-1" points="14.7 16.3 13.7 17.1 15.1 17.8 14.7 16.3 14.7 16.3"/><path class="cls-5" d="M9,17.5a2.9,2.9,0,0,1,2.5-1.7c2-.2,2.5.8,2.5.8"/><path class="cls-1" d="M24.5,25A1.5,1.5,0,0,1,26,26.2a1,1,0,0,0,1,.8h7.6c.3,0,.4.2.4.4s-.7.8-.7.8a1,1,0,0,0,.2,1.9c.1,0,.5.1.5.4s-.1.7-.4.8a1,1,0,0,0-.2,2s.6.1.6.6-.3.8-.4.8a1,1,0,0,0-.7,1.6l.5.4c.4.2.6.4.6.7a1.2,1.2,0,0,1-.1.6H13V27h9.1a1,1,0,0,0,1-.8A1.5,1.5,0,0,1,24.5,25m0-1a2.5,2.5,0,0,0-2.4,2H12V39H35.4a2.3,2.3,0,0,0,.6-1.6c0-1.1-1.2-1.5-1.3-1.7A1.7,1.7,0,0,0,36,34a1.7,1.7,0,0,0-1.3-1.6s1.3,0,1.4-1.8-1.4-1.4-1.4-1.4A2.1,2.1,0,0,0,36,27.4,1.5,1.5,0,0,0,34.6,26H26.9a2.5,2.5,0,0,0-2.4-2Z"/><rect class="cls-3" x="10.9" y="30.9" width="3.3" height="3.27" transform="translate(-19.3 18.4) rotate(-45)"/><path class="cls-1" d="M12.5,30.9l1.6,1.6-1.6,1.6-1.6-1.6,1.6-1.6m0-1.4-3,3,3,3,3-3-3-3Z"/></g></svg>